<svg id="Layer_1" enable-background="new 0 0 512 512" height="512" viewBox="0 0 512 512" width="512" xmlns="http://www.w3.org/2000/svg"><path d="m299.134 160.963h-276.224c-8.475 0-15.41 6.945-15.41 15.434v220.686c0 8.486 6.936 15.432 15.41 15.432h50.592v60.898c0 8.486 4.905 10.518 10.896 4.52l65.333-65.418h212.239c8.474 0 15.411-6.945 15.411-15.432v-160.313c-38.233-8.526-68.554-38.03-78.247-75.807z" fill="#fda613"/><path d="m39 397.082v-220.686c0-8.488 6.936-15.434 15.41-15.434h-31.5c-8.475 0-15.41 6.945-15.41 15.434v220.686c0 8.486 6.936 15.432 15.41 15.432h31.5c-8.474 0-15.41-6.946-15.41-15.432z" fill="#fa8701"/><path d="m7.5 112.285c0 2.75 2.25 5 5 5h198.149c2.75 0 5-2.25 5-5v-59.449c0-2.75-2.25-5-5-5h-198.149c-2.75 0-5 2.25-5 5z" fill="#0592fb"/><path d="m38.851 112.285v-59.449c0-2.75 2.25-5 5-5h-31.351c-2.75 0-5 2.25-5 5v59.449c0 2.75 2.25 5 5 5h31.351c-2.75 0-5-2.25-5-5z" fill="#0181fb"/><circle cx="400.183" cy="134.959" fill="#fd646f" r="104.317"/><path d="m327 134.959c0-52.322 38.522-95.645 88.751-103.16-5.079-.76-10.276-1.158-15.567-1.158-57.614 0-104.318 46.705-104.318 104.318 0 57.611 46.704 104.318 104.318 104.318 5.291 0 10.488-.398 15.567-1.158-50.229-7.515-88.751-50.84-88.751-103.16z" fill="#fc4755"/><path d="m377.381 303.51c-4.143 0-7.5 3.357-7.5 7.5v86.072c0 4.373-3.549 7.932-7.911 7.932h-143.97c-4.143 0-7.5 3.357-7.5 7.5s3.357 7.5 7.5 7.5h143.97c12.633 0 22.911-10.287 22.911-22.932v-86.072c0-4.143-3.358-7.5-7.5-7.5z"/><path d="m85.268 249.621h214.348c4.143 0 7.5-3.357 7.5-7.5s-3.357-7.5-7.5-7.5h-214.348c-4.143 0-7.5 3.357-7.5 7.5s3.357 7.5 7.5 7.5z"/><path d="m85.268 294.805h214.348c4.143 0 7.5-3.357 7.5-7.5s-3.357-7.5-7.5-7.5h-214.348c-4.143 0-7.5 3.357-7.5 7.5 0 4.142 3.357 7.5 7.5 7.5z"/><path d="m198.407 324.992h-113.139c-4.143 0-7.5 3.357-7.5 7.5s3.357 7.5 7.5 7.5h113.14c4.143 0 7.5-3.357 7.5-7.5-.001-4.142-3.358-7.5-7.501-7.5z"/><path d="m12.5 124.785h135.5c4.143 0 7.5-3.358 7.5-7.5 0-4.143-3.357-7.5-7.5-7.5h-133v-54.449h193.149v54.449h-24.149c-4.143 0-7.5 3.357-7.5 7.5 0 4.142 3.357 7.5 7.5 7.5h26.649c6.893 0 12.5-5.608 12.5-12.5v-59.449c0-6.892-5.607-12.5-12.5-12.5h-198.149c-6.893 0-12.5 5.608-12.5 12.5v59.449c0 6.893 5.607 12.5 12.5 12.5z"/><path d="m181.759 82.559c0-4.143-3.357-7.5-7.5-7.5h-131.761c-4.143 0-7.5 3.357-7.5 7.5s3.357 7.5 7.5 7.5h131.761c4.142 0 7.5-3.358 7.5-7.5z"/><path d="m400.184 23.141c-61.657 0-111.818 50.162-111.818 111.818 0 6.303.533 12.482 1.54 18.504h-266.996c-12.633 0-22.91 10.289-22.91 22.933v220.686c0 12.645 10.277 22.932 22.91 22.932h43.092v53.398c0 9.902 4.909 13.412 7.835 14.623.905.373 2.386.824 4.278.824 3.033 0 7.124-1.156 11.59-5.627l63.136-63.219h30.158c4.143 0 7.5-3.357 7.5-7.5s-3.357-7.5-7.5-7.5h-33.268c-1.991 0-3.9.791-5.307 2.201l-63.423 63.504v-58.205c0-4.143-3.357-7.5-7.5-7.5h-50.591c-4.361 0-7.91-3.559-7.91-7.932v-220.685c0-4.375 3.549-7.934 7.91-7.934h270.585c11.273 35.818 40.12 63.916 76.386 74.139v33.408c0 4.143 3.357 7.5 7.5 7.5s7.5-3.357 7.5-7.5v-30.285c5.005.688 10.111 1.053 15.303 1.053 61.655 0 111.816-50.162 111.816-111.818s-50.161-111.818-111.816-111.818zm0 208.636c-53.386 0-96.818-43.434-96.818-96.818 0-53.387 43.433-96.818 96.818-96.818s96.816 43.432 96.816 96.818c0 53.385-43.432 96.818-96.816 96.818z"/><path d="m359.532 173.277c-2.941 2.916-2.962 7.666-.047 10.607 2.916 2.941 7.664 2.963 10.607.047 16.592-16.447 43.588-16.447 60.18 0 1.463 1.449 3.372 2.174 5.28 2.174 1.931 0 3.86-.742 5.327-2.221 2.915-2.941 2.895-7.691-.047-10.607-22.415-22.216-58.884-22.216-81.3 0z"/><path d="m382.626 108.566c0-4.143-3.357-7.5-7.5-7.5s-7.5 3.357-7.5 7.5c0 5.598-4.663 10.154-10.396 10.154s-10.396-4.557-10.396-10.154c0-4.143-3.357-7.5-7.5-7.5s-7.5 3.357-7.5 7.5c0 13.869 11.393 25.154 25.396 25.154 14.003.001 25.396-11.284 25.396-25.154z"/><path d="m461.031 101.066c-4.143 0-7.5 3.357-7.5 7.5 0 5.598-4.664 10.154-10.397 10.154s-10.397-4.557-10.397-10.154c0-4.143-3.357-7.5-7.5-7.5s-7.5 3.357-7.5 7.5c0 13.869 11.394 25.154 25.397 25.154s25.397-11.285 25.397-25.154c0-4.142-3.357-7.5-7.5-7.5z"/></svg>